<svg t="1736440499566" class="icon" viewBox="0 0 1024 1024" version="1.1" xmlns="http://www.w3.org/2000/svg" p-id="6809" width="200" height="200"><path d="M663.04 80H156.16A92.16 92.16 0 0 0 64 172.16v506.88a92.16 92.16 0 0 0 92.16 92.16h506.88a92.16 92.16 0 0 0 92.16-92.16V172.16A92.16 92.16 0 0 0 663.04 80z" fill="#0065F3" p-id="6810"></path><path d="M855.04 272H348.16A92.16 92.16 0 0 0 256 364.16v506.88a92.16 92.16 0 0 0 92.16 92.16h506.88a92.16 92.16 0 0 0 92.16-92.16V364.16A92.16 92.16 0 0 0 855.04 272z" fill="#82B6FA" opacity=".4" p-id="6811"></path><path d="M348.16 280h506.88a84.16 84.16 0 0 1 84.16 84.16v506.88a84.16 84.16 0 0 1-84.16 84.16H348.16a84.16 84.16 0 0 1-84.16-84.16V364.16a84.16 84.16 0 0 1 84.16-84.16z m607.04 84.16a100.16 100.16 0 0 0-100.16-100.16H348.16a100.16 100.16 0 0 0-100.16 100.16v506.88a100.16 100.16 0 0 0 100.16 100.16h506.88a100.16 100.16 0 0 0 100.16-100.16V364.16z" fill="#FFFFFF" opacity=".4" p-id="6812"></path><path d="M726.832 387.424v75.424h-44.848c-35.152 0-41.712 16.864-41.712 41.136v54h83.712l-11.136 84.576h-72.576v216.848h-87.424V642.56H480v-84.576h72.848v-62.272c0-72.288 44.288-111.712 108.864-111.712 30.848 0 57.44 2.288 65.152 3.424h-0.032z" fill="#FFFFFF" p-id="6813"></path></svg>