<svg t="1736440762894" class="icon" viewBox="0 0 1024 1024" version="1.1" xmlns="http://www.w3.org/2000/svg" p-id="16821" width="200" height="200"><path d="M0 0m85.333333 0l853.333334 0q85.333333 0 85.333333 85.333333l0 853.333334q0 85.333333-85.333333 85.333333l-853.333334 0q-85.333333 0-85.333333-85.333333l0-853.333334q0-85.333333 85.333333-85.333333Z" fill="#1296db" opacity=".203" p-id="16822"></path><path d="M399.786667 779.733333l9.941333-144.682666 256.128-235.562667c9.984-10.112-3.328-13.482667-19.968-3.413333l-315.989333 205.312-139.690667-43.733334c-26.581333-10.112-26.581333-26.922667 3.328-43.776l535.466667-212.010666c23.338667-10.069333 46.592 3.413333 36.608 43.776l-93.098667 434.090666c-3.328 33.664-23.296 37.034667-49.92 23.552l-139.690667-104.32-56.533333 60.586667c-6.656 13.44-13.312 20.181333-26.624 20.181333z" fill="#1296db" p-id="16823"></path></svg>