<svg t="1736679407571" class="icon" viewBox="0 0 1024 1024" version="1.1" xmlns="http://www.w3.org/2000/svg" p-id="3458" width="200" height="200"><path d="M700.51466786 454.1586653l127.42064197 104.65180361c115.61195872 94.96444071 61.80113268 282.27702705-96.73220766 337.14851327l-174.79679631 60.52834047c-158.60405102 54.9421969-303.06596642-63.78103166-260.07387412-213.68766927l47.37615434-165.18014409c42.92138162-149.83592693 241.19412306-218.42528471 356.80608178-123.46084399z" p-id="3459" fill="#b48181"></path><path d="M321.81653892 414.93455412a138 90 72.213 1 0-84.31227728-262.8068489 138 90 72.213 1 0 84.31227728 262.8068489Z" p-id="3460" fill="#b48181"></path><path d="M200.77126785 692.17040904a138 90 72.213 1 0-84.31227798-262.80684961 138 90 72.213 1 0 84.31227798 262.80684961Z" p-id="3461" fill="#b48181"></path><path d="M611.49066658 321.9529978a138 90 72.213 1 0-84.31227728-262.8068489 138 90 72.213 1 0 84.31227728 262.8068489Z" p-id="3462" fill="#b48181"></path><path d="M871.89913231 476.87872036a138 90 72.213 1 0-84.31227798-262.80684961 138 90 72.213 1 0 84.31227798 262.80684961Z" p-id="3463" fill="#b48181"></path></svg>