<svg t="1736441014116" class="icon" viewBox="0 0 1024 1024" version="1.1" xmlns="http://www.w3.org/2000/svg" p-id="34971" width="200" height="200"><path d="M0 0m170.666667 0l682.666666 0q170.666667 0 170.666667 170.666667l0 682.666666q0 170.666667-170.666667 170.666667l-682.666666 0q-170.666667 0-170.666667-170.666667l0-682.666666q0-170.666667 170.666667-170.666667Z" p-id="34972" data-spm-anchor-id="a313x.search_index.0.i34.7b2c3a81VthWdR" class="selected" fill="#6578e7"></path><path d="M283.221333 397.056A256 256 0 0 1 512 256a245.802667 245.802667 0 0 1 171.264 66.688l-73.386667 73.429333a138.368 138.368 0 0 0-97.877333-38.314666 154.24 154.24 0 1 0 86.698667 283.946666 117.76 117.76 0 0 0 51.2-77.269333H512v-99.029333h241.109333a294.4 294.4 0 0 1 4.650667 52.352 249.514667 249.514667 0 0 1-76.330667 188.16A244.266667 244.266667 0 0 1 512 768a256 256 0 0 1-228.778667-370.944z" fill="#FFFFFF" p-id="34973"></path></svg>